<svg width="41" height="40" viewBox="0 0 41 40" fill="none" xmlns="http://www.w3.org/2000/svg">
<g filter="url(#filter0_b_9_55)">
<path d="M24.3438 31.25C24.3434 31.9374 24.1493 32.6115 23.7828 33.1986C23.4164 33.7857 22.8915 34.2632 22.2656 34.579C21.6398 34.8948 20.937 35.0366 20.2341 34.989C19.5312 34.9415 18.8552 34.7064 18.28 34.3093C17.7048 33.9123 17.2525 33.3687 16.9726 32.7378C16.6927 32.107 16.5959 31.4132 16.6928 30.7324C16.7897 30.0515 17.0765 29.4097 17.522 28.8771C17.9675 28.3445 18.5545 27.9416 19.2188 27.7125V16.25C19.2188 15.9185 19.3537 15.6005 19.594 15.3661C19.8343 15.1317 20.1602 15 20.5 15C20.8398 15 21.1657 15.1317 21.406 15.3661C21.6463 15.6005 21.7813 15.9185 21.7813 16.25V27.7125C22.531 27.9711 23.18 28.4502 23.639 29.0838C24.0979 29.7173 24.3442 30.4742 24.3438 31.25Z" fill="white"/>
<path d="M14.0938 6.25C14.0938 4.5924 14.7687 3.00269 15.9701 1.83058C17.1715 0.65848 18.801 0 20.5 0C22.199 0 23.8285 0.65848 25.0299 1.83058C26.2313 3.00269 26.9063 4.5924 26.9063 6.25V25.125C28.1422 26.3557 28.9783 27.915 29.3096 29.6074C29.6408 31.2998 29.4526 33.05 28.7684 34.6384C28.0843 36.2268 26.9347 37.5829 25.4637 38.5365C23.9928 39.49 22.2661 39.9987 20.5 39.9987C18.7339 39.9987 17.0072 39.49 15.5363 38.5365C14.0654 37.5829 12.9157 36.2268 12.2316 34.6384C11.5474 33.05 11.3592 31.2998 11.6905 29.6074C12.0217 27.915 12.8578 26.3557 14.0938 25.125V6.25ZM20.5 2.5C19.4806 2.5 18.5029 2.89509 17.7821 3.59835C17.0612 4.30161 16.6563 5.25544 16.6563 6.25V26.2175L16.2283 26.5925C15.2612 27.4363 14.5794 28.5467 14.2733 29.7768C13.9672 31.0069 14.0512 32.2987 14.5141 33.4812C14.977 34.6637 15.797 35.6813 16.8657 36.3991C17.9344 37.117 19.2012 37.5013 20.4987 37.5013C21.7962 37.5013 23.0631 37.117 24.1317 36.3991C25.2004 35.6813 26.0204 34.6637 26.4834 33.4812C26.9463 32.2987 27.0302 31.0069 26.7241 29.7768C26.418 28.5467 25.7363 27.4363 24.7691 26.5925L24.3438 26.2175V6.25C24.3438 5.25544 23.9388 4.30161 23.2179 3.59835C22.4971 2.89509 21.5194 2.5 20.5 2.5Z" fill="white"/>
</g>
<defs>
<filter id="filter0_b_9_55" x="-4" y="-4" width="49" height="48" filterUnits="userSpaceOnUse" color-interpolation-filters="sRGB">
<feFlood flood-opacity="0" result="BackgroundImageFix"/>
<feGaussianBlur in="BackgroundImageFix" stdDeviation="2"/>
<feComposite in2="SourceAlpha" operator="in" result="effect1_backgroundBlur_9_55"/>
<feBlend mode="normal" in="SourceGraphic" in2="effect1_backgroundBlur_9_55" result="shape"/>
</filter>
</defs>
</svg>
