<svg width="40" height="40" viewBox="0 0 40 40" fill="none" xmlns="http://www.w3.org/2000/svg">
<g filter="url(#filter0_b_9_50)">
<path d="M25.0108 5.4268C28.0803 4.76229 31.8883 4.7955 37.0703 6.0878C37.9633 6.31049 38.5062 7.21319 38.283 8.10402C38.0598 8.99485 37.155 9.5365 36.262 9.31382C31.4442 8.11237 28.169 8.14579 25.7178 8.67645C23.259 9.20874 21.4915 10.2645 19.619 11.4061L19.4788 11.4916C17.6738 12.5928 15.6751 13.8122 13.0344 14.2512C10.2954 14.7065 7.05987 14.3039 2.71455 12.5698C1.85995 12.2287 1.44429 11.2611 1.78617 10.4086C2.12804 9.55599 3.09799 9.14132 3.95259 9.48239C7.94042 11.0738 10.5381 11.295 12.4865 10.9711C14.4646 10.6423 15.9727 9.73194 17.8808 8.56865C19.7582 7.42409 21.9488 6.08967 25.0108 5.4268Z" fill="white"/>
<path d="M37.0703 12.7384C31.8883 11.4461 28.0803 11.4129 25.0108 12.0774C21.9488 12.7403 19.7582 14.0747 17.8808 15.2193C15.9727 16.3826 14.4646 17.2929 12.4865 17.6217C10.5381 17.9456 7.94042 17.7244 3.95259 16.133C3.09799 15.792 2.12804 16.2066 1.78617 17.0592C1.44429 17.9117 1.85995 18.8794 2.71455 19.2204C7.05987 20.9546 10.2954 21.3571 13.0344 20.9017C15.6751 20.4627 17.6738 19.2434 19.4788 18.1422L19.619 18.0567C21.4915 16.9151 23.259 15.8594 25.7178 15.3271C28.169 14.7964 31.4442 14.763 36.262 15.9644C37.155 16.1871 38.0598 15.6455 38.283 14.7546C38.5062 13.8638 37.9633 12.9611 37.0703 12.7384Z" fill="white"/>
<path fill-rule="evenodd" clip-rule="evenodd" d="M31.6665 16.7109C31.0878 16.7109 30.6057 17.0098 30.2692 17.4619C30.151 17.6216 29.8778 17.9953 29.515 18.5183C29.0323 19.2138 28.3863 20.1803 27.7375 21.2591C27.0918 22.3326 26.4257 23.5466 25.916 24.7328C25.428 25.8688 24.9983 27.1023 25 28.3528C25.0012 28.7038 25.0432 29.0564 25.1008 29.4019C25.1972 29.9786 25.3928 30.7726 25.8008 31.5868C26.2122 32.4076 26.8553 33.2789 27.8513 33.9413C28.8578 34.6106 30.1248 34.9999 31.6665 34.9999C33.2082 34.9999 34.4752 34.6106 35.4815 33.9413C36.4775 33.2789 37.1208 32.4076 37.5322 31.5869C37.9402 30.7726 38.136 29.9786 38.2323 29.4021C38.2902 29.0561 38.3327 28.7024 38.3332 28.3511C38.3337 27.1006 37.9052 25.8689 37.417 24.7328C36.9075 23.5466 36.2413 22.3326 35.5957 21.2591C34.9468 20.1803 34.3007 19.2138 33.818 18.5183C33.4552 17.9953 33.1818 17.6216 33.0638 17.4619C32.7273 17.0098 32.245 16.7109 31.6665 16.7109ZM34.3533 26.0428C33.9255 25.0468 33.3417 23.9746 32.7373 22.9699C32.3698 22.3589 32.0013 21.7836 31.6665 21.2789C31.3317 21.7836 30.9632 22.3589 30.5957 22.9699C29.9915 23.9746 29.4077 25.0468 28.9798 26.0428L28.9555 26.0991C28.661 26.7839 28.313 27.5936 28.3337 28.3501C28.3537 28.9484 28.5148 29.5661 28.7823 30.0998C28.9958 30.5261 29.2902 30.9018 29.7003 31.1746C30.1002 31.4404 30.7082 31.6746 31.6665 31.6746C32.6248 31.6746 33.2328 31.4404 33.6327 31.1746C34.0428 30.9018 34.3372 30.5259 34.5508 30.0998C34.8183 29.5661 34.9795 28.9484 34.9995 28.3499C35.0203 27.5938 34.6722 26.7841 34.3777 26.0994L34.3533 26.0428Z" fill="white"/>
<path d="M23.5491 19.218C24.8163 18.8079 25.7878 20.1267 25.192 21.3154C24.9198 21.8585 24.6136 22.3207 24.005 22.5357C22.3765 23.111 21.0275 23.9212 19.619 24.7799L19.4788 24.8654C17.6738 25.9665 15.6751 27.1859 13.0344 27.6249C10.2954 28.0802 7.05988 27.6777 2.71455 25.9435C1.85995 25.6025 1.4443 24.6349 1.78617 23.7824C2.12805 22.9297 3.09798 22.515 3.9526 22.8562C7.94042 24.4475 10.5381 24.6687 12.4865 24.3449C14.4646 24.016 15.9727 23.1057 17.8808 21.9424C19.6941 20.8369 21.5603 19.8619 23.5491 19.218Z" fill="white"/>
</g>
<defs>
<filter id="filter0_b_9_50" x="-4" y="-4" width="48" height="48" filterUnits="userSpaceOnUse" color-interpolation-filters="sRGB">
<feFlood flood-opacity="0" result="BackgroundImageFix"/>
<feGaussianBlur in="BackgroundImageFix" stdDeviation="2"/>
<feComposite in2="SourceAlpha" operator="in" result="effect1_backgroundBlur_9_50"/>
<feBlend mode="normal" in="SourceGraphic" in2="effect1_backgroundBlur_9_50" result="shape"/>
</filter>
</defs>
</svg>
