<svg width="41" height="41" viewBox="0 0 41 41" fill="none" xmlns="http://www.w3.org/2000/svg">
<g filter="url(#filter0_b_9_74)">
<path d="M16.6603 27.8801C15.2479 30.334 16.1991 32.3491 18.1609 33.4807C20.1208 34.6144 22.345 34.434 23.7615 31.9801C25.174 29.5304 34.1079 7.65687 33.331 7.20792C32.554 6.75897 18.0749 25.4283 16.6603 27.8801ZM20.5 12.3001C21.3979 12.3001 22.2712 12.376 23.126 12.5236C24.024 11.3981 25.0285 10.1579 26.0063 8.98117C24.2167 8.46321 22.363 8.20027 20.5 8.20012C9.00565 8.20012 0 17.8946 0 30.2704C0 31.031 0.0328 31.7915 0.10045 32.5316C0.2009 33.6611 1.20745 34.4893 2.32265 34.393C3.4522 34.2884 4.2845 33.2962 4.18405 32.1667C4.12806 31.5361 4.10002 30.9034 4.1 30.2704C4.1 20.1926 11.3037 12.3001 20.5 12.3001ZM35.299 14.8626C34.727 16.4001 34.1222 17.9663 33.5892 19.3193C35.67 22.3328 36.9 26.113 36.9 30.2704C36.9 30.9182 36.8693 31.5722 36.8119 32.2036C36.7855 32.7325 36.9646 33.2511 37.3117 33.6511C37.6589 34.051 38.1473 34.3012 38.6746 34.3494C39.202 34.3976 39.7276 34.24 40.1415 33.9096C40.5554 33.5792 40.8256 33.1016 40.8954 32.5767C40.9631 31.8182 41 31.0433 41 30.2704C41 24.2147 38.8414 18.8109 35.299 14.8626Z" fill="white"/>
</g>
<defs>
<filter id="filter0_b_9_74" x="-4" y="-4" width="49" height="49" filterUnits="userSpaceOnUse" color-interpolation-filters="sRGB">
<feFlood flood-opacity="0" result="BackgroundImageFix"/>
<feGaussianBlur in="BackgroundImageFix" stdDeviation="2"/>
<feComposite in2="SourceAlpha" operator="in" result="effect1_backgroundBlur_9_74"/>
<feBlend mode="normal" in="SourceGraphic" in2="effect1_backgroundBlur_9_74" result="shape"/>
</filter>
</defs>
</svg>
