<svg width="40" height="40" viewBox="0 0 40 40" fill="none" xmlns="http://www.w3.org/2000/svg">
<g filter="url(#filter0_b_9_49)">
<path d="M15.9835 7.65005C16.3707 7.26057 16.8481 6.97279 17.3733 6.81229C17.8985 6.65178 18.4552 6.62353 18.994 6.73004C19.5327 6.83655 20.0368 7.07452 20.4614 7.42279C20.886 7.77107 21.218 8.21887 21.4279 8.72637C21.6377 9.23388 21.7189 9.78537 21.6643 10.3318C21.6096 10.8783 21.4208 11.4028 21.1146 11.8587C20.8084 12.3145 20.3943 12.6877 19.9091 12.945C19.4239 13.2023 18.8827 13.3357 18.3335 13.3334H3.3335M20.9835 32.3501C21.3707 32.7395 21.8481 33.0273 22.3733 33.1878C22.8985 33.3483 23.4552 33.3766 23.994 33.2701C24.5327 33.1636 25.0368 32.9256 25.4614 32.5773C25.886 32.229 26.218 31.7812 26.4279 31.2737C26.6377 30.7662 26.7189 30.2147 26.6643 29.6683C26.6096 29.1218 26.4208 28.5973 26.1146 28.1415C25.8084 27.6856 25.3943 27.3124 24.9091 27.0551C24.4239 26.7978 23.8827 26.6644 23.3335 26.6667H3.3335M29.5502 12.8834C30.0349 12.3999 30.6313 12.0432 31.2867 11.8451C31.9421 11.6469 32.6362 11.6133 33.3076 11.7472C33.9791 11.8811 34.6072 12.1784 35.1364 12.6128C35.6656 13.0473 36.0796 13.6054 36.3418 14.2379C36.604 14.8704 36.7062 15.5577 36.6396 16.2391C36.5729 16.9205 36.3393 17.575 35.9595 18.1447C35.5797 18.7144 35.0654 19.1817 34.462 19.5053C33.8587 19.8289 33.1848 19.9988 32.5002 20.0001H3.3335" stroke="white" stroke-width="4" stroke-linecap="round" stroke-linejoin="round"/>
</g>
<defs>
<filter id="filter0_b_9_49" x="-4" y="-4" width="48" height="48" filterUnits="userSpaceOnUse" color-interpolation-filters="sRGB">
<feFlood flood-opacity="0" result="BackgroundImageFix"/>
<feGaussianBlur in="BackgroundImageFix" stdDeviation="2"/>
<feComposite in2="SourceAlpha" operator="in" result="effect1_backgroundBlur_9_49"/>
<feBlend mode="normal" in="SourceGraphic" in2="effect1_backgroundBlur_9_49" result="shape"/>
</filter>
</defs>
</svg>
